<svg aria-hidden="true" xmlns="http://www.w3.org/2000/svg" id="uuid-081bd064-f7a4-4701-a438-ece56dfc20f3" version="1.1"
     viewBox="0 0 296.96 208.42">
  <defs id="defs1586">
    <style id="style1584">.uuid-9c17ef5b-ea7f-4822-888b-1aa3cb48c6d5{fill:#00668a}</style>
  </defs>
  <g id="uuid-a8323419-a906-4524-b7a3-4c87a5d06302">
    <g id="uuid-a5c0b25e-424b-4112-b6d7-882d6e5902f0">
      <g id="text1594" aria-label="ARGUS"
         style="font-style:normal;font-variant:normal;font-weight:700;font-stretch:normal;font-size:75px;font-family:Futura;-inkscape-font-specification:&quot;Futura Bold&quot;;font-variant-ligatures:normal;font-variant-caps:normal;font-variant-numeric:normal;font-variant-east-asian:normal;fill:#fff;fill-opacity:1"
         transform="translate(0 182.62)">
        <path id="path185"
              d="m36.675-21-6.6-18.825L23.475-21zm3.9 11.175h-21L16.2 0H.525L22.05-56.55H38.1L59.625 0H43.95Z"
              style="font-style:normal;font-variant:normal;font-weight:700;font-stretch:normal;font-size:75px;font-family:Futura;-inkscape-font-specification:&quot;Futura Bold&quot;;font-variant-ligatures:normal;font-variant-caps:normal;font-variant-numeric:normal;font-variant-east-asian:normal;fill:#fff;fill-opacity:1"/>
        <path id="path187"
              d="M80.775-31.275h2.775q4.35 0 6.675-1.8t2.325-5.175q0-3.375-2.325-5.175-2.325-1.8-6.675-1.8h-2.775zM113.1 0H94.8L80.775-21.75V0h-14.7v-56.55H88.95q4.725 0 8.25 1.425 3.525 1.35 5.775 3.75 2.325 2.4 3.45 5.55 1.2 3.15 1.2 6.75 0 6.45-3.15 10.5-3.075 3.975-9.15 5.4z"
              style="font-style:normal;font-variant:normal;font-weight:700;font-stretch:normal;font-size:75px;font-family:Futura;-inkscape-font-specification:&quot;Futura Bold&quot;;font-variant-ligatures:normal;font-variant-caps:normal;font-variant-numeric:normal;font-variant-east-asian:normal;letter-spacing:0;fill:#fff;fill-opacity:1"/>
        <path id="path189"
              d="M146.02-31.65h29.175q0 4.5-.375 8.175-.375 3.675-1.5 6.825-1.575 4.425-4.275 7.875-2.7 3.375-6.375 5.7-3.6 2.25-7.95 3.45-4.35 1.2-9.15 1.2-6.6 0-12.075-2.175-5.4-2.175-9.3-6.075-3.9-3.975-6.075-9.45-2.175-5.55-2.175-12.225 0-6.6 2.1-12.075 2.175-5.55 6.075-9.45 3.975-3.9 9.525-6.075 5.55-2.175 12.375-2.175 8.85 0 15.525 3.825 6.675 3.825 10.575 11.85l-13.95 5.775q-1.95-4.65-5.1-6.675-3.075-2.025-7.05-2.025-3.3 0-6 1.275-2.7 1.2-4.65 3.525-1.875 2.25-3 5.475-1.05 3.225-1.05 7.2 0 3.6.9 6.675.975 3.075 2.85 5.325t4.65 3.525q2.775 1.2 6.45 1.2 2.175 0 4.2-.45 2.025-.525 3.6-1.575 1.65-1.125 2.7-2.85 1.05-1.725 1.425-4.2H146.02Z"
              style="font-style:normal;font-variant:normal;font-weight:700;font-stretch:normal;font-size:75px;font-family:Futura;-inkscape-font-specification:&quot;Futura Bold&quot;;font-variant-ligatures:normal;font-variant-caps:normal;font-variant-numeric:normal;font-variant-east-asian:normal;fill:#fff;fill-opacity:1"/>
        <path id="path191"
              d="M199.26-56.55v30.75q0 2.475.15 5.1.224 2.55 1.124 4.65.975 2.1 3 3.45 2.025 1.275 5.7 1.275 3.675 0 5.625-1.275 2.025-1.35 3-3.45.975-2.1 1.125-4.65.225-2.625.225-5.1v-30.75h14.625v32.775q0 13.2-6.075 19.275-6 6.075-18.525 6.075-12.525 0-18.6-6.075-6.075-6.075-6.075-19.275V-56.55Z"
              style="font-style:normal;font-variant:normal;font-weight:700;font-stretch:normal;font-size:75px;font-family:Futura;-inkscape-font-specification:&quot;Futura Bold&quot;;font-variant-ligatures:normal;font-variant-caps:normal;font-variant-numeric:normal;font-variant-east-asian:normal;fill:#fff;fill-opacity:1"/>
        <path id="path193"
              d="M276.693-42.075q-2.4-1.95-4.8-2.85-2.4-.975-4.65-.975-2.85 0-4.65 1.35-1.8 1.35-1.8 3.525 0 1.5.9 2.475.9.975 2.325 1.725 1.5.675 3.3 1.2 1.875.525 3.675 1.125 7.2 2.4 10.5 6.45 3.375 3.975 3.375 10.425 0 4.35-1.5 7.875-1.425 3.525-4.275 6.075-2.775 2.475-6.9 3.825-4.05 1.425-9.225 1.425-10.725 0-19.875-6.375l6.3-11.85q3.3 2.925 6.525 4.35 3.225 1.425 6.375 1.425 3.6 0 5.325-1.65 1.8-1.65 1.8-3.75 0-1.275-.45-2.175-.45-.975-1.5-1.725-1.05-.825-2.775-1.5-1.65-.675-4.05-1.5-2.85-.9-5.625-1.95-2.7-1.125-4.875-2.925-2.1-1.8-3.45-4.5-1.275-2.775-1.275-6.975 0-4.2 1.35-7.575 1.425-3.45 3.9-5.85 2.55-2.475 6.15-3.825 3.675-1.35 8.175-1.35 4.2 0 8.775 1.2 4.575 1.125 8.775 3.375z"
              style="font-style:normal;font-variant:normal;font-weight:700;font-stretch:normal;font-size:75px;font-family:Futura;-inkscape-font-specification:&quot;Futura Bold&quot;;font-variant-ligatures:normal;font-variant-caps:normal;font-variant-numeric:normal;font-variant-east-asian:normal;fill:#fff;fill-opacity:1"/>
      </g>
      <g id="uuid-451afd43-a51d-42bd-82cc-033fbd978d12">
        <path id="path1596"
              d="M20.84 87.81c2.52-11.78 8.06-22.65 14.74-32.58 17.53-25.96 45.3-44.52 75.93-51.6 18.13-4.4 37.15-4.29 55.61-2.35 5.99.52 12.12 1.72 18.01 2.79 5.8 1.29 12.14 2.91 17.79 4.82 16.25 5.15 32.08 13.28 45.28 24.12 5 4.13 9.67 8.69 13.74 13.76 2.35 2.91 18.85 25.45 21.45 28.9l-20.72-5.13c-.13-.03-.29-.25-.64-.12l-.25.03-.13.01-.16.07c-.84.33-1.5.81-2.25 1.36-3.39 2.75-6.41 5.85-10.27 8.87-6.06 4.84-13.4 8.55-20.97 9.99l-1.36-2.22c5.72-3.67 10.76-8.24 14.84-13.67 4.44-5.48 7.24-12.52 13.22-16.76l-.42 2.96c-1.74-1.85-3.89-3.63-5.91-5.26-10.6-8.29-23.18-14.25-35.8-18.83-4.51-1.51-11.06-3.58-15.63-4.64l-3.95-1.02-4.01-.79c-6.21-1.38-13.86-2.38-20.18-3.2-6.26-.49-14.16-1.22-20.42-1.23-38.44-2.35-76.01 12.11-103.96 38.43-6 5.54-11.61 11.55-16.63 18.02-1.66 2.15-3.3 4.38-4.73 6.61l-2.24-1.33Z"
              class="uuid-9c17ef5b-ea7f-4822-888b-1aa3cb48c6d5" style="fill:#fff;fill-opacity:1"/>
        <path id="path1598"
              d="M145.48 29.37c21.13 0 38.26 17.13 38.26 38.26s-17.13 38.26-38.26 38.26-38.26-17.13-38.26-38.26 17.13-38.26 38.26-38.26"
              class="uuid-9c17ef5b-ea7f-4822-888b-1aa3cb48c6d5" style="fill:#fff;fill-opacity:1"/>
      </g>
    </g>
  </g>
</svg>
